<svg fill="none" height="22" viewBox="0 0 24 22" width="24" xmlns="http://www.w3.org/2000/svg"><path d="m0 2.19613c0-.95809.766071-1.732141 1.71429-1.732141h20.57141c.9482 0 1.7143.774051 1.7143 1.732141s-.7661 1.73214-1.7143 1.73214h-20.57141c-.948219 0-1.71429-.77405-1.71429-1.73214zm0 8.66067c0-.95805.766071-1.7321 1.71429-1.7321h20.57141c.9482 0 1.7143.77405 1.7143 1.7321 0 .9581-.7661 1.7322-1.7143 1.7322h-20.57141c-.948219 0-1.71429-.7741-1.71429-1.7322zm24 8.6608c0 .9581-.7661 1.7321-1.7143 1.7321h-20.57141c-.948219 0-1.71429-.774-1.71429-1.7321s.766071-1.7322 1.71429-1.7322h20.57141c.9482 0 1.7143.7741 1.7143 1.7322z" fill="#fff"/></svg>