<svg fill="none" height="24" viewBox="0 0 23 24" width="23" xmlns="http://www.w3.org/2000/svg"><path d="m22.3239 4.11858c.8984-.92285.8984-2.42156 0-3.34441-.8984-.922852-2.3575-.922852-3.2559 0l-7.5685 7.78148-7.57559-7.774097c-.89844-.922852-2.3575-.922852-3.255941 0-.898438.922847-.898438 2.421557 0 3.344417l7.575621 7.77413-7.568434 7.7815c-.898437.9228-.898437 2.4215 0 3.3444.898434.9228 2.357504.9228 3.255934 0l7.56841-7.7815 7.5757 7.7741c.8984.9228 2.3575.9228 3.2559 0 .8984-.9229.8984-2.4216 0-3.3444l-7.5756-7.7741z" fill="#fff"/></svg>